<svg width="1536" height="1024" viewBox="0 0 1536 1024" fill="none" xmlns="http://www.w3.org/2000/svg">
<path d="M767.902 223.562C775.057 225.638 799.402 242.19 807.097 247.054C821.325 255.857 835.627 264.548 849.99 273.129L946.192 332.136C960.082 340.636 974.04 349.325 988.238 357.308C989.588 358.068 991.275 359.518 991.485 361.05C992.535 368.694 993.315 407.247 990.915 411.634C986.805 414.2 974.205 414.543 970.433 411.061C969.315 408.209 969.848 374.028 969.848 368.202C946.522 367.695 921.855 368.098 898.41 368.108L768.187 368.141C700.807 368.131 632.463 367.518 565.186 368.254C565.3 376.596 566.442 405.052 564.145 410.943C561.287 414.115 546.449 413.872 543.321 411.935C541.388 406.761 542.59 366.798 543.24 359.63C551.134 353.996 567.732 344.517 576.288 339.312C599.346 325.504 622.331 311.574 645.244 297.526L719.875 252.204C734.596 243.217 752.895 231.388 767.902 223.562ZM598.726 349.672L767.062 349.581L937.65 349.64C922.425 339.567 905.625 329.992 890.025 320.35C849.87 295.532 808.537 271.843 768.645 246.659C713.179 281.113 654.891 316.03 598.726 349.672Z" fill="#F2F2F7"/>
<path d="M767.152 171.697C772.5 173.259 794.557 187.884 800.595 191.598L869.46 234.216L986.22 306.667C1000.27 315.342 1014.49 323.79 1028.37 332.788C1032.83 335.678 1046.8 342.213 1048.42 346.979C1050.6 353.428 1043.83 367.076 1034.89 362.099C1023.58 355.804 1012.57 348.736 1001.5 341.861L942.285 305.043L769.575 197.91C762.382 200.171 726.021 224.041 717.247 229.408L578.072 313.766C554.049 328.342 530.165 343.17 506.04 357.558C499.882 360.701 494.643 364.736 489.823 357.083C485.691 350.524 483.497 344.539 491.613 340.029C501.608 334.475 511.403 328.081 521.207 322.082L591.326 279.121L715.256 203.336C732.148 193.073 750.247 181.422 767.152 171.697Z" fill="#F2F2F7"/>
<path d="M483.41 447.557L484.237 447.473C488.144 447.104 516.641 446.502 521.297 448.386C522.928 449.045 522.768 456.98 522.789 459.805C515.171 464.973 512.579 465.549 512.517 475.734C512.315 510.851 512.239 546.744 512.621 581.775C512.69 588.155 541.142 606.351 501.722 603.879C497.09 603.588 482.312 604.843 479.39 602.819C474.773 589.826 485.243 591.435 485.698 582.947C486.539 567.218 486.149 548.49 486.106 532.818L486.022 509.739C480.219 536.339 469.604 565.294 462.752 591.839C461.198 597.859 451.263 599.453 449.057 593.243C445.474 583.155 442.668 572.654 439.685 562.324C434.107 542.501 428.234 522.763 422.069 503.115C421.175 526.461 422.04 562.045 422.391 585.987C425.486 590.603 427.208 591.675 431.646 595.12C431.882 598.81 431.818 603.453 431.873 607.222C425.296 608.1 396.287 611.139 391.319 609.586C388.142 605.803 389.118 599.588 389.33 594.626C400.358 587.876 401.132 588.142 401.096 574.957C401.02 546.753 400.908 518.527 400.926 490.323C400.931 482.735 401.216 474.768 400.292 467.262C398.329 465.329 394.675 462.69 392.384 460.934C392.324 460.018 392.27 459.101 392.221 458.183C391.948 453.141 391.142 450.889 394.379 447.283C406.595 447.637 419.014 447.01 431.337 447.532C433.297 452.266 435.834 462.66 437.362 468.19L449.336 511.833C451.69 520.419 454.379 531.516 457.672 539.521C459.134 531.457 464.685 514.074 467.125 505.603L483.41 447.557Z" fill="#F2F2F7"/>
<path d="M850.56 447.205C869.078 447.355 900.338 444.592 916.568 451.395C943.92 462.865 947.318 510.484 915.93 521.375C943.478 529.806 947.28 563.159 935.55 586.211C928.065 596.437 915.803 602.247 903.488 601.999C894.203 601.811 856.223 604.399 849.908 601.375C843.128 591.098 858.083 588.326 858.09 578.387C858.098 542.647 858.098 506.849 857.858 471.129C857.813 464.205 841.56 460.705 850.56 447.205ZM885.038 582.016C893.873 581.77 900.615 582.01 907.763 576.068C910.515 572.379 912.998 568.483 913.658 563.904C916.883 541.589 906.645 529.217 885.113 530.014C884.888 546.121 884.535 565.955 885.038 582.016ZM885 510.255C894.24 510.123 898.65 510.163 905.91 504.069C913.253 493.11 915.053 477.599 902.775 469.143C897.375 465.42 891.308 465.838 885.008 465.897L885 510.255Z" fill="#F2F2F7"/>
<path d="M297.507 447.428C312.312 447.279 327.119 447.234 341.925 447.291C344.705 459.173 347.105 474.593 349.351 486.794C353.29 508.725 357.404 530.624 361.694 552.489C363.588 562.577 366.557 582.92 369.608 591.7C372.347 594.232 377.757 597.444 378.237 600.784C378.711 604.082 379.517 608.438 377.687 611.357C374.162 612.72 339.371 615.361 335.542 614.726C332.954 611.026 333.783 604.761 333.965 600.128C337.958 596.86 340.161 595.111 343.603 591.157C343.022 586.623 341.842 574.629 339.871 571.175L337.688 570.808L307.769 570.88C307.182 575.156 306.055 580.012 305.045 584.18C302.544 594.491 304.427 596.546 312.519 602.109C312.695 603.017 312.847 603.928 312.974 604.844C314.949 619.01 309.11 615.863 297.298 617.131C288.548 618.069 279.296 618.684 270.51 619.016C269.617 612.771 269.276 609.954 269.309 603.578C272.229 601.34 274.787 599.234 277.59 596.849C280.895 587.195 285.083 559.666 287.54 548.221C292.48 523.402 297.21 498.498 302.532 473.76C303.547 469.045 301.172 467.363 298.109 463.976C293.63 459.021 289.225 451.506 297.507 447.428ZM310.841 552.037C314.902 551.812 319.593 551.435 323.609 551.414L337.295 551.185L330.02 511.476C328.802 504.816 326.679 491.529 324.244 485.772C319.432 503.69 314.363 533.13 310.841 552.037Z" fill="#F2F2F7"/>
<path d="M746.786 447.297C759.54 446.763 775.485 447.203 788.49 447.202C790.747 459.261 790.537 459.486 781.215 466.908C779.092 477.14 780.12 497.846 780.203 509.982C780.893 534.644 779.115 560.015 781.365 584.484C781.545 586.378 796.057 595.12 788.16 603.053C785.227 604.336 781.267 603.881 777.937 603.786C767.722 603.943 756.96 603.78 746.701 603.769C743.89 585.631 752.378 591.326 753.382 583.649C755.55 567.012 753.9 547.633 754.477 530.497C744.405 529.908 730.095 530.235 719.75 530.201C719.831 543.408 718.885 574.02 720.17 585.754C723.872 588.659 727.61 591.411 728.456 596.488C728.712 597.961 728.335 599.475 727.417 600.655C723.403 605.888 687.82 604.682 685.096 602.413C683.815 599.294 684.109 595.462 684.108 592.01C686.554 590.02 690.944 587.101 692.123 584.12C693.874 579.693 694.34 476.178 692.689 469.005C691.51 463.883 686.335 462.191 684.593 457.74C683.206 454.195 684.958 450.405 686.55 447.249C699.735 447.207 714.779 446.856 727.79 447.468C728.21 450.271 728.829 453.282 728.698 456.123C728.5 460.404 725.973 461.111 723.302 463.794C717.355 469.767 719.928 502.634 719.727 512.221C731.321 512.128 742.916 512.14 754.507 512.26C754.2 497.956 754.98 480.961 753.855 466.963C744.035 459.731 744.816 458.614 746.786 447.297Z" fill="#F2F2F7"/>
<path d="M1008.2 461.245C1007.99 456.889 1007.36 452.28 1009.54 448.492C1010.29 447.928 1010.99 447.505 1011.97 447.508C1018.94 447.537 1045.78 445.562 1050.26 448.779C1050.73 452.033 1050.7 456.581 1050.77 459.981C1048.25 461.868 1042.79 465.509 1042.08 468.206C1040.2 475.307 1040.8 485.69 1040.84 493.16L1040.97 545.154C1040.99 555.421 1041.19 565.348 1040.31 575.604C1037.74 605.541 996.773 612.87 975.72 598.255C969.713 594.103 965.25 588.075 963.038 581.114C958.65 567.121 961.98 510.874 961.073 492.402C960.75 485.854 961.68 476.943 960.42 469.929C959.565 465.145 956.767 464.065 952.642 461.234C952.38 457.108 951.525 450.739 953.85 447.293L984.833 447.102C997.478 447.107 996.743 447.742 996.728 460.303C990.938 463.865 987.563 465.187 987.398 472.702C986.768 501.768 987.705 530.885 987.158 559.959C987.03 566.751 987.218 576.544 993.27 581.056C1001.75 587.384 1017.32 584.243 1018.04 571.97C1017.9 537.785 1018.67 503.264 1017.54 469.117C1017.44 466.135 1010.37 462.497 1008.2 461.245Z" fill="#F2F2F7"/>
<path d="M624.202 445.856C628.707 445.198 633.281 445.181 637.79 445.805C643.828 446.65 652.24 450.419 657.713 448.457C661.411 447.132 663.641 445.291 667.367 447.732C669.515 452.551 670.174 487.939 667.095 491.011C663.025 492.335 656.342 492.742 652.301 491.29C647.737 487.99 649.118 477.84 646.547 472.827C643.864 466.494 639.727 465.084 633.159 465.466C622.401 466.093 619.931 473.795 617.426 482.603C623.947 515.932 671.892 519.137 672.764 558.7C673.387 586.954 657.245 604.269 629.245 605.213C620.29 604.451 616.938 603.212 608.533 600.389C604.836 601.771 599.443 603.801 595.48 602.878C594.029 602.54 592.749 601.656 592.021 600.369C590.282 597.297 590.222 556.648 591.726 552.919C592.129 551.917 592.674 551.328 593.701 550.994C597.599 549.727 605.152 550.208 608.831 552.04C609.812 554.055 610.062 565.761 610.392 569.508C612.023 588.037 634.485 589.003 642.787 575.327C657.866 550.49 619.929 534.22 606.724 519.556C600.507 512.65 594.84 504.819 592.946 495.269C588.307 470.589 600.115 451.296 624.202 445.856Z" fill="#F2F2F7"/>
<path d="M1189.73 447.175C1203.45 447.805 1271.32 445.814 1278.28 448.35C1280.44 452.41 1280.46 481.859 1278.1 485.653C1274.09 489.131 1265.89 487.711 1260.3 487.447C1260.08 482.004 1260.72 473.977 1256.3 470.47C1253.33 470.017 1248.81 469.395 1246.3 471.11C1245.91 475.917 1245.88 480.573 1245.91 485.389C1246.09 520.391 1245.57 555.42 1246.03 590.412C1246.08 593.66 1246.37 595.42 1248.83 597.596C1254.75 602.419 1252.72 608.994 1251.93 615.813C1243.09 616.426 1219.29 614.879 1210.25 613.72C1209.13 602.097 1207.46 599.405 1218.69 593.477C1219.84 580.649 1219.27 560.256 1219.27 546.917L1219.43 470.061C1198.83 468.453 1210.03 474.697 1203.58 486.49C1202.77 487.961 1191.22 488.872 1188.57 485.66C1187.08 479.94 1187.19 452.971 1189.73 447.175Z" fill="#F2F2F7"/>
<path d="M1122.47 447.29C1135.02 446.858 1150.07 447.27 1162.82 447.281C1163.69 452.459 1163.74 455.182 1163.84 460.369C1160.6 462.718 1155.31 465.804 1155.12 470.055C1154.57 482.905 1154.83 496.079 1154.86 508.94L1154.96 588.972C1157.17 589.061 1166.72 589.522 1168.1 589.319C1195.01 585.331 1161.11 570.889 1200.47 572.712C1200.9 580.442 1200.71 589.496 1200.71 597.333C1200.73 601.318 1201.31 606.885 1198.96 609.924C1191.8 612.807 1137.97 606.732 1127.22 607.526C1118.8 608.149 1120.19 599.626 1120.37 593.357C1126.4 586.937 1129.4 586.82 1129.43 577.036C1129.55 541.956 1129.94 506.716 1129.24 471.658C1129.09 464.208 1113.8 459.446 1122.47 447.29Z" fill="#F2F2F7"/>
<path d="M634.748 663.217C651.995 663.104 670.135 662.374 687.121 663.806C699.043 665.599 708.935 673.091 711.497 684.991C714.842 700.519 709.971 708.507 697.409 717.176C706.598 724.44 708.563 738.303 719.48 742.74C720.825 743.287 722.428 747.943 722.6 749.806C719.929 757.888 703.3 755.367 695.702 755.187L692.308 749.828C687.719 741.69 681.215 729.998 675.961 722.543C672.569 722.563 668.51 722.863 665.067 723.03C665.062 728.609 665.183 734.188 665.432 739.763C667.773 740.844 670.87 742.002 673.316 742.989C673.607 747.134 673.565 750.723 673.523 754.887C664.447 755.787 643.468 755.329 634.113 754.894C633.865 751.459 633.984 747.441 634.004 743.946L642.02 739.093C642.607 720.769 642.437 698.575 642.068 680.226C633.337 674.881 632.789 673.257 634.748 663.217ZM665.218 708.099C672.514 708.147 679.319 708.862 685.33 704.137C690.333 696.528 690.652 687.296 681.786 682.4C676.113 679.268 671.428 679.663 665.164 679.906L665.218 708.099Z" fill="#F2F2F7"/>
<path d="M895.837 661.205C909.09 659.953 916.043 661.821 928.163 666.268C950.16 652.254 944.933 681.234 944.79 693.67C938.993 694.076 931.808 693.871 925.875 693.844C923.783 688.334 920.4 682.193 914.348 680.567C886.335 673.04 873.518 705.58 884.265 726.576C887.318 732.658 892.71 737.233 899.212 739.243C908.535 742.111 915.87 739.586 924.023 735.276L924.052 720.982L906.052 720.904C905.715 714.863 905.64 710.433 906.353 704.424L946.395 704.479C947.235 720.261 946.62 738.336 947.063 754.662C941.985 754.984 929.663 757.265 927.45 752.209C921.96 753.251 916.89 755.922 911.753 757.19C901.2 759.583 888.18 757.242 878.948 751.714C855.833 737.874 851.295 703.449 865.23 681.654C872.745 669.898 882.3 664.118 895.837 661.205Z" fill="#F2F2F7"/>
<path d="M437.697 661.125C452.495 660.274 458.218 660.985 471.661 666.496C477.993 662.264 478.787 662.843 486.67 663.176C487.747 673.541 487.437 683.425 486.958 693.807L467.761 693.849C465.566 688.194 463.121 682.295 456.68 680.514C420.102 670.393 409.023 728.538 440.924 739.259C449.424 742.116 458.75 739.384 466.457 735.247C466.373 730.586 466.48 725.66 466.502 720.976L447.019 720.796C446.717 716.69 446.908 711.433 446.943 707.235L447.515 705.464C451.19 703.506 480.046 704.423 486.571 704.484C488.158 711.537 487.428 745.86 487.071 754.542C484.881 754.744 478.996 755.404 477.061 754.992C467.988 753.071 465.139 754.324 456.682 756.59C444.646 759.695 431.868 757.933 421.124 751.676C410.944 745.731 403.581 735.94 400.691 724.507C393.226 695.634 408.188 668.061 437.697 661.125Z" fill="#F2F2F7"/>
<path d="M538.03 663.269C549.629 662.976 562.419 663.241 574.109 663.248C582.182 685.513 592.057 707.38 600.341 729.592C601.551 732.837 602.973 735.875 604.58 738.944C613.926 743.914 612.586 745.21 611.885 755.112C599.723 755.187 587.56 755.172 575.397 755.052C574.782 749.519 574.772 748.62 575.436 742.943C578.927 741.666 580.011 741.602 581.69 738.818C582.033 735.856 579.957 731.601 578.794 728.629C576.872 726.929 553.112 727.648 548.873 727.66C546.851 732.621 545.821 735.216 544.472 740.492C554.783 743.488 553.171 744.786 552.704 754.804C549.003 755.112 516.907 756.462 516.099 753.507C513.849 745.273 515.532 743.248 522.548 739.626C529.104 724.333 539.991 697.871 544.874 682.564L537.056 676.504C537.048 671.542 536.859 668.151 538.03 663.269ZM554.225 711.189L564.344 711.853L572.584 711.213C570.344 704.657 566.187 691.294 563.537 685.391C560.639 693.499 557.419 703.337 554.225 711.189Z" fill="#F2F2F7"/>
<path d="M765.975 663.227L801.54 663.269C811.665 688.297 821.94 714.706 832.777 739.357C833.377 739.658 833.978 739.963 834.578 740.273C840.495 743.344 842.58 747.687 839.22 754.047C834.495 756.252 809.97 755.142 803.392 755.059L803.235 743.452C805.597 742.254 808.41 741.044 810.848 739.933L807.075 728.442C805.612 727.02 780.675 727.663 776.745 727.677C775.455 731.754 773.962 735.948 772.582 740.012C774.652 740.972 778.395 742.255 780.63 743.086L780.765 754.729C771.773 755.795 753 755.209 743.336 755.029L743.583 743.552L750.765 739.705C754.223 732.718 759.023 719.477 762.053 711.773C765.12 703.967 771.142 689.862 773.137 682.325L765.3 676.165C765.068 671.053 765.037 668.193 765.975 663.227ZM782.587 711.758C785.94 711.682 790.043 711.696 793.32 711.386C795.608 711.413 798.51 711.537 800.745 711.455L791.422 685.379C788.52 694.089 785.64 703.128 782.587 711.758Z" fill="#F2F2F7"/>
<path d="M1061.61 447.441C1073.23 446.589 1088 447.108 1099.73 447.381C1105.49 447.515 1108.06 459.424 1097.75 464.039C1096.48 466.173 1095.69 468.363 1095.63 470.847C1095.19 490.062 1094.78 511.728 1095.21 530.813C1095.55 545.682 1094.2 572.192 1095.84 585.98C1106.66 590.69 1106.42 604.388 1095.73 604.074C1090.33 603.915 1065.7 604.484 1061.9 603.278C1060.94 602.299 1060.21 601.411 1059.8 600.072C1057.84 593.699 1065.8 589.54 1068.32 584.615C1070.28 580.799 1069.79 484.207 1069.29 473.933C1069.15 470.917 1068.55 468.268 1067.61 465.408C1058.44 459.661 1059.21 457.501 1061.61 447.441Z" fill="#F2F2F7"/>
<path d="M1061.61 447.441C1073.23 446.589 1088 447.108 1099.73 447.381C1105.49 447.515 1108.06 459.424 1097.75 464.039C1100.19 460.765 1104.24 457.998 1103.51 453.459C1103.4 452.791 1102.44 450.166 1101.82 449.97C1095.64 448.021 1069.48 448.237 1063.98 449.11C1062.01 451.367 1062.01 453.329 1062.11 456.489C1062.29 461.697 1070.32 464.25 1070.77 470.002C1071.25 476.131 1071.1 482.608 1071.1 488.755L1071.03 523.824L1070.92 562.527C1070.9 568.627 1070.81 574.912 1070.83 580.987C1070.85 590.791 1057.13 592.111 1062.62 601.989C1066.08 602.637 1096.33 603.456 1100.11 600.675C1102.15 599.176 1102.06 598.746 1102.74 596.641C1101.83 589.06 1096.82 591.366 1095.84 585.98C1106.66 590.69 1106.42 604.388 1095.73 604.074C1090.33 603.915 1065.7 604.484 1061.9 603.278C1060.94 602.299 1060.21 601.411 1059.8 600.072C1057.84 593.699 1065.8 589.54 1068.32 584.615C1070.28 580.799 1069.79 484.207 1069.29 473.933C1069.15 470.917 1068.55 468.268 1067.61 465.408C1058.44 459.661 1059.21 457.501 1061.61 447.441Z" fill="#1D1D10"/>
<path d="M538.363 447.201C545.022 447.18 576.586 445.995 579.634 448.823C581.002 452.038 580.77 456.543 580.832 460.142C575.546 463.609 571.175 465.081 571.095 472.388C570.689 509.026 570.287 545.944 571.154 582.537C571.25 586.568 587.039 595.994 576.695 603.679L557.312 603.905C552.538 603.95 540.696 604.852 537.723 601.933C536.413 598.897 536.969 595.25 537.144 591.86C541.227 588.723 545.138 586.219 545.341 580.549C546.332 552.771 545.597 524.878 545.734 497.075C545.782 487.327 545.962 477.002 545.052 467.327C543.74 466.294 542.447 465.233 541.177 464.147C536.222 459.867 533.549 452.635 538.363 447.201Z" fill="#F2F2F7"/>
<path d="M976.635 663.257L1020.49 663.146C1026.76 663.134 1040.82 662.713 1046.48 663.937C1050.78 667.706 1048.27 685.093 1047.01 690.405C1043.35 690.447 1038.97 690.169 1035.26 690.031C1034.69 688.53 1033.13 684.275 1032.14 683.401C1027.18 679.019 1012.41 680.688 1005.73 680.764L1005.52 700.961C1009.86 701.102 1027.47 699.698 1029.23 702.498C1040.25 720.079 1013.44 715.873 1005.73 715.798L1005.64 737.618L1005.91 739.153C1007.44 740.152 1011.75 740.258 1013.72 740.226C1023.57 740.063 1030.6 742.08 1035.27 732.26C1039.76 732.152 1044.43 732.299 1048.94 732.376C1049.38 737.005 1049.86 750.191 1048.48 754.107C1045.82 755.232 981.54 755.914 977.257 754.857C976.035 753.416 975.247 750.566 975.15 748.655C974.902 743.927 979.207 742.768 981.862 739.83C986.077 735.159 984.075 690.372 983.902 681.795C981.622 680.052 978.682 678.604 976.132 677.214C975.315 671.506 974.798 668.686 976.635 663.257Z" fill="#F2F2F7"/>
<path d="M1103.34 661.103C1116.76 660.395 1113.46 662.551 1124.59 663.984C1142.91 654.557 1138.25 682.188 1137.59 691.422C1133.42 691.814 1129.08 691.655 1124.87 691.597L1121.62 682.929C1115.5 678.148 1109.01 677.86 1102.72 682.218C1096.72 686.571 1102.45 694.745 1107.27 696.919C1124.06 704.586 1141.6 704.111 1141.58 727.124C1141.55 749.256 1128.04 757.97 1106.75 757.805C1101.17 757.595 1096.59 755.87 1091.47 753.919C1087.63 754.609 1081.77 756.005 1078.12 754.842C1076.19 750.536 1077.18 730.117 1077.29 724.216L1091.78 724.424C1091.84 725.955 1091.96 727.483 1092.14 729.006C1092.67 733.325 1094.73 736.276 1098.22 738.81C1101.5 741.193 1105.6 742.156 1109.59 741.481C1115.92 740.434 1123.12 735.309 1120.67 728.282C1117.22 718.353 1100.55 717.681 1092.37 712.46C1086.89 709.366 1080.51 703.913 1079.27 697.14C1075.44 676.335 1084.84 665.688 1103.34 661.103Z" fill="#F2F2F7"/>
</svg>
